{
	"asset":{
		"generator":"Khronos glTF Blender I/O v4.2.57",
		"version":"2.0"
	},
	"extensionsUsed":[
		"KHR_materials_clearcoat"
	],
	"scene":0,
	"scenes":[
		{
			"name":"Scene",
			"nodes":[
				0
			]
		}
	],
	"nodes":[
		{
			"mesh":0,
			"name":"b2",
			"rotation":[
				0.70710688829422,
				0,
				0,
				0.7071066498756409
			],
			"scale":[
				-0.000403641868615523,
				-0.0004036419268231839,
				-0.0004036419268231839
			],
			"translation":[
				-0.8227762579917908,
				1.0305795669555664,
				0.7780919075012207
			]
		}
	],
	"materials":[
		{
			"alphaMode":"BLEND",
			"doubleSided":true,
			"extensions":{
				"KHR_materials_clearcoat":{
					"clearcoatRoughnessFactor":0
				}
			},
			"name":"etiketks",
			"normalTexture":{
				"index":0
			},
			"pbrMetallicRoughness":{
				"baseColorTexture":{
					"index":1
				},
				"metallicRoughnessTexture":{
					"index":2
				}
			}
		},
		{
			"alphaMode":"BLEND",
			"doubleSided":true,
			"extensions":{
				"KHR_materials_clearcoat":{
					"clearcoatRoughnessFactor":0
				}
			},
			"name":"glassbilel",
			"pbrMetallicRoughness":{
				"baseColorTexture":{
					"index":3
				},
				"metallicRoughnessTexture":{
					"index":4
				}
			}
		},
		{
			"doubleSided":true,
			"extensions":{
				"KHR_materials_clearcoat":{
					"clearcoatRoughnessFactor":0
				}
			},
			"name":"kriwki",
			"normalTexture":{
				"index":5
			},
			"pbrMetallicRoughness":{
				"baseColorTexture":{
					"index":6
				},
				"metallicRoughnessTexture":{
					"index":7
				}
			}
		}
	],
	"meshes":[
		{
			"name":"Object003_etiketks_0",
			"primitives":[
				{
					"attributes":{
						"POSITION":0,
						"NORMAL":1,
						"TEXCOORD_0":2
					},
					"indices":3,
					"material":0
				},
				{
					"attributes":{
						"POSITION":4,
						"NORMAL":5,
						"TEXCOORD_0":6
					},
					"indices":7,
					"material":1
				},
				{
					"attributes":{
						"POSITION":8,
						"NORMAL":9,
						"TEXCOORD_0":10
					},
					"indices":11,
					"material":2
				}
			]
		}
	],
	"textures":[
		{
			"sampler":0,
			"source":0
		},
		{
			"sampler":0,
			"source":1
		},
		{
			"sampler":0,
			"source":2
		},
		{
			"sampler":0,
			"source":3
		},
		{
			"sampler":0,
			"source":4
		},
		{
			"sampler":0,
			"source":5
		},
		{
			"sampler":0,
			"source":6
		},
		{
			"sampler":0,
			"source":7
		}
	],
	"images":[
		{
			"mimeType":"image/png",
			"name":"Image_10",
			"uri":"Image_10.png"
		},
		{
			"mimeType":"image/png",
			"name":"Image_8",
			"uri":"Image_8.png"
		},
		{
			"mimeType":"image/png",
			"name":"Image_9",
			"uri":"Image_9.png"
		},
		{
			"mimeType":"image/png",
			"name":"Image_6",
			"uri":"Image_6.png"
		},
		{
			"mimeType":"image/png",
			"name":"Image_7",
			"uri":"Image_7.png"
		},
		{
			"mimeType":"image/png",
			"name":"Image_13",
			"uri":"Image_13.png"
		},
		{
			"mimeType":"image/jpeg",
			"name":"Image_11",
			"uri":"Image_11.jpg"
		},
		{
			"mimeType":"image/png",
			"name":"Image_12",
			"uri":"Image_12.png"
		}
	],
	"accessors":[
		{
			"bufferView":0,
			"componentType":5126,
			"count":66,
			"max":[
				70.55799102783203,
				70.87359619140625,
				272.1490783691406
			],
			"min":[
				-70.7248764038086,
				-70.9263916015625,
				62.60313034057617
			],
			"type":"VEC3"
		},
		{
			"bufferView":1,
			"componentType":5126,
			"count":66,
			"type":"VEC3"
		},
		{
			"bufferView":2,
			"componentType":5126,
			"count":66,
			"type":"VEC2"
		},
		{
			"bufferView":3,
			"componentType":5123,
			"count":180,
			"type":"SCALAR"
		},
		{
			"bufferView":4,
			"componentType":5126,
			"count":1809,
			"max":[
				72.00857543945312,
				72.01708984375,
				445.46746826171875
			],
			"min":[
				-72.00858306884766,
				-72.0001220703125,
				-1.3469104766845703
			],
			"type":"VEC3"
		},
		{
			"bufferView":5,
			"componentType":5126,
			"count":1809,
			"type":"VEC3"
		},
		{
			"bufferView":6,
			"componentType":5126,
			"count":1809,
			"type":"VEC2"
		},
		{
			"bufferView":7,
			"componentType":5123,
			"count":7206,
			"type":"SCALAR"
		},
		{
			"bufferView":8,
			"componentType":5126,
			"count":452,
			"max":[
				25.531274795532227,
				25.04168701171875,
				470.6510009765625
			],
			"min":[
				-25.29611587524414,
				-25.01348876953125,
				410.33819580078125
			],
			"type":"VEC3"
		},
		{
			"bufferView":9,
			"componentType":5126,
			"count":452,
			"type":"VEC3"
		},
		{
			"bufferView":10,
			"componentType":5126,
			"count":452,
			"type":"VEC2"
		},
		{
			"bufferView":11,
			"componentType":5123,
			"count":1668,
			"type":"SCALAR"
		}
	],
	"bufferViews":[
		{
			"buffer":0,
			"byteLength":792,
			"byteOffset":0,
			"target":34962
		},
		{
			"buffer":0,
			"byteLength":792,
			"byteOffset":792,
			"target":34962
		},
		{
			"buffer":0,
			"byteLength":528,
			"byteOffset":1584,
			"target":34962
		},
		{
			"buffer":0,
			"byteLength":360,
			"byteOffset":2112,
			"target":34963
		},
		{
			"buffer":0,
			"byteLength":21708,
			"byteOffset":2472,
			"target":34962
		},
		{
			"buffer":0,
			"byteLength":21708,
			"byteOffset":24180,
			"target":34962
		},
		{
			"buffer":0,
			"byteLength":14472,
			"byteOffset":45888,
			"target":34962
		},
		{
			"buffer":0,
			"byteLength":14412,
			"byteOffset":60360,
			"target":34963
		},
		{
			"buffer":0,
			"byteLength":5424,
			"byteOffset":74772,
			"target":34962
		},
		{
			"buffer":0,
			"byteLength":5424,
			"byteOffset":80196,
			"target":34962
		},
		{
			"buffer":0,
			"byteLength":3616,
			"byteOffset":85620,
			"target":34962
		},
		{
			"buffer":0,
			"byteLength":3336,
			"byteOffset":89236,
			"target":34963
		}
	],
	"samplers":[
		{
			"magFilter":9729,
			"minFilter":9987
		}
	],
	"buffers":[
		{
			"byteLength":92572,
			"uri":"bar23.bin"
		}
	]
}
