{
	"asset":{
		"generator":"Khronos glTF Blender I/O v4.2.57",
		"version":"2.0"
	},
	"extensionsUsed":[
		"KHR_materials_clearcoat"
	],
	"scene":0,
	"scenes":[
		{
			"name":"Scene",
			"nodes":[
				0,
				1
			]
		}
	],
	"nodes":[
		{
			"mesh":0,
			"name":"Object_2",
			"rotation":[
				-0.5014356970787048,
				0.49856019020080566,
				0.49856019020080566,
				0.5014357566833496
			],
			"translation":[
				-0.09013362973928452,
				0.044141218066215515,
				0.000343862920999527
			]
		},
		{
			"mesh":1,
			"name":"wall",
			"translation":[
				0,
				1,
				0
			]
		}
	],
	"materials":[
		{
			"doubleSided":true,
			"extensions":{
				"KHR_materials_clearcoat":{
					"clearcoatRoughnessFactor":0
				}
			},
			"name":"model-rc_u1_v1.001",
			"normalTexture":{
				"index":0
			},
			"pbrMetallicRoughness":{
				"baseColorTexture":{
					"index":1
				},
				"metallicFactor":0
			}
		},
		{
			"doubleSided":true,
			"extensions":{
				"KHR_materials_clearcoat":{
					"clearcoatRoughnessFactor":0
				}
			},
			"name":"Material.005",
			"pbrMetallicRoughness":{
				"baseColorFactor":[
					1,
					0.46400076150894165,
					0.2693345248699188,
					1
				],
				"metallicFactor":0,
				"roughnessFactor":0.5
			}
		}
	],
	"meshes":[
		{
			"name":"Object_0.001",
			"primitives":[
				{
					"attributes":{
						"POSITION":0,
						"NORMAL":1,
						"TEXCOORD_0":2
					},
					"indices":3,
					"material":0
				}
			]
		},
		{
			"name":"Cube.008",
			"primitives":[
				{
					"attributes":{
						"POSITION":4,
						"NORMAL":5,
						"TEXCOORD_0":6
					},
					"indices":7,
					"material":1
				}
			]
		}
	],
	"textures":[
		{
			"sampler":0,
			"source":0
		},
		{
			"sampler":0,
			"source":1
		}
	],
	"images":[
		{
			"mimeType":"image/png",
			"name":"Image_1",
			"uri":"Image_1.png"
		},
		{
			"mimeType":"image/jpeg",
			"name":"Image_0",
			"uri":"Image_0.jpg"
		}
	],
	"accessors":[
		{
			"bufferView":0,
			"componentType":5126,
			"count":172952,
			"max":[
				0.9756417274475098,
				0.8780851364135742,
				0.021385453641414642
			],
			"min":[
				-0.9756678938865662,
				-1.0522971153259277,
				0.007072880864143372
			],
			"type":"VEC3"
		},
		{
			"bufferView":1,
			"componentType":5126,
			"count":172952,
			"type":"VEC3"
		},
		{
			"bufferView":2,
			"componentType":5126,
			"count":172952,
			"type":"VEC2"
		},
		{
			"bufferView":3,
			"componentType":5125,
			"count":747579,
			"type":"SCALAR"
		},
		{
			"bufferView":4,
			"componentType":5126,
			"count":4713,
			"max":[
				1,
				0.6368272304534912,
				1.0000118017196655
			],
			"min":[
				-1,
				-1,
				-1
			],
			"type":"VEC3"
		},
		{
			"bufferView":5,
			"componentType":5126,
			"count":4713,
			"type":"VEC3"
		},
		{
			"bufferView":6,
			"componentType":5126,
			"count":4713,
			"type":"VEC2"
		},
		{
			"bufferView":7,
			"componentType":5123,
			"count":6900,
			"type":"SCALAR"
		}
	],
	"bufferViews":[
		{
			"buffer":0,
			"byteLength":2075424,
			"byteOffset":0,
			"target":34962
		},
		{
			"buffer":0,
			"byteLength":2075424,
			"byteOffset":2075424,
			"target":34962
		},
		{
			"buffer":0,
			"byteLength":1383616,
			"byteOffset":4150848,
			"target":34962
		},
		{
			"buffer":0,
			"byteLength":2990316,
			"byteOffset":5534464,
			"target":34963
		},
		{
			"buffer":0,
			"byteLength":56556,
			"byteOffset":8524780,
			"target":34962
		},
		{
			"buffer":0,
			"byteLength":56556,
			"byteOffset":8581336,
			"target":34962
		},
		{
			"buffer":0,
			"byteLength":37704,
			"byteOffset":8637892,
			"target":34962
		},
		{
			"buffer":0,
			"byteLength":13800,
			"byteOffset":8675596,
			"target":34963
		}
	],
	"samplers":[
		{
			"magFilter":9729,
			"minFilter":9987
		}
	],
	"buffers":[
		{
			"byteLength":8689396,
			"uri":"xxbar.bin"
		}
	]
}
