{
	"asset":{
		"generator":"Khronos glTF Blender I/O v4.2.57",
		"version":"2.0"
	},
	"extensionsUsed":[
		"KHR_materials_emissive_strength"
	],
	"scene":0,
	"scenes":[
		{
			"name":"Scene",
			"nodes":[
				0,
				1,
				2,
				3,
				4,
				5,
				6,
				7
			]
		}
	],
	"nodes":[
		{
			"mesh":0,
			"name":"Curve",
			"rotation":[
				0.70710688829422,
				0.00012204420636408031,
				-0.00012204422091599554,
				0.7071066498756409
			],
			"scale":[
				0.23144668340682983,
				0.23144672811031342,
				0.23144671320915222
			],
			"translation":[
				-2.00626540184021,
				0.7069767713546753,
				-2.004364013671875
			]
		},
		{
			"mesh":1,
			"name":"Curve.001",
			"rotation":[
				0.70710688829422,
				0.00012204420636408031,
				-0.00012204422091599554,
				0.7071066498756409
			],
			"scale":[
				0.23144668340682983,
				0.23144672811031342,
				0.23144671320915222
			],
			"translation":[
				-2.00626540184021,
				0.7069767713546753,
				-2.004364013671875
			]
		},
		{
			"mesh":2,
			"name":"Curve.002",
			"rotation":[
				0.5013976693153381,
				0.49859750270843506,
				-0.5015708804130554,
				0.49842509627342224
			],
			"scale":[
				0.1746026575565338,
				0.1746026575565338,
				0.1746026575565338
			],
			"translation":[
				-2.4359214305877686,
				0.523516058921814,
				-0.902420699596405
			]
		},
		{
			"mesh":3,
			"name":"wall",
			"rotation":[
				0,
				-0.70698481798172,
				0,
				0.7072287797927856
			],
			"translation":[
				-1.5044867992401123,
				1,
				-1.081082820892334
			]
		},
		{
			"mesh":4,
			"name":"Cylinder.004",
			"rotation":[
				0,
				-0.7069847583770752,
				0,
				0.7072287797927856
			],
			"scale":[
				-0.0060051498003304005,
				-0.027763184159994125,
				-0.0060051498003304005
			],
			"translation":[
				-1.5044867992401123,
				1.6165353059768677,
				-1.081082820892334
			]
		},
		{
			"mesh":5,
			"name":"Curve.003",
			"rotation":[
				0,
				-0.7069847583770752,
				0,
				0.7072287797927856
			],
			"scale":[
				0.08482643216848373,
				0.08482642471790314,
				0.08482643216848373
			],
			"translation":[
				-1.5044867992401123,
				1.6059534549713135,
				-1.081082820892334
			]
		},
		{
			"mesh":6,
			"name":"Sphere.004",
			"rotation":[
				0,
				-0.7069847583770752,
				0,
				0.7072287797927856
			],
			"scale":[
				0.04308875650167465,
				0.043088752776384354,
				0.04308875650167465
			],
			"translation":[
				-1.5044867992401123,
				1.5056188106536865,
				-1.081082820892334
			]
		},
		{
			"mesh":7,
			"name":"2tables",
			"rotation":[
				-0.49829596281051636,
				-0.5016983151435852,
				-0.5016981363296509,
				0.49829593300819397
			],
			"translation":[
				-1.4204738140106201,
				0.042773425579071045,
				-1.0689775943756104
			]
		}
	],
	"materials":[
		{
			"doubleSided":true,
			"emissiveFactor":[
				1,
				0.0017252087127417326,
				0.013201487250626087
			],
			"extensions":{
				"KHR_materials_emissive_strength":{
					"emissiveStrength":8.796180725097656
				}
			},
			"name":"Material.108",
			"pbrMetallicRoughness":{
				"baseColorFactor":[
					0,
					0,
					0,
					1
				]
			}
		},
		{
			"doubleSided":true,
			"emissiveFactor":[
				0.02309899777173996,
				1,
				0.12815842032432556
			],
			"extensions":{
				"KHR_materials_emissive_strength":{
					"emissiveStrength":6.583756923675537
				}
			},
			"name":"Material.109",
			"pbrMetallicRoughness":{
				"baseColorFactor":[
					0,
					0,
					0,
					1
				]
			}
		},
		{
			"doubleSided":true,
			"emissiveFactor":[
				1,
				0.47303080558776855,
				0.04641219973564148
			],
			"extensions":{
				"KHR_materials_emissive_strength":{
					"emissiveStrength":10
				}
			},
			"name":"Material.110",
			"pbrMetallicRoughness":{
				"baseColorFactor":[
					0,
					0,
					0,
					1
				]
			}
		},
		{
			"doubleSided":true,
			"name":"Material.076",
			"pbrMetallicRoughness":{
				"baseColorFactor":[
					1,
					0.4620773196220398,
					0.27049800753593445,
					1
				],
				"metallicFactor":0,
				"roughnessFactor":0.5
			}
		},
		{
			"doubleSided":true,
			"name":"Material.112",
			"pbrMetallicRoughness":{
				"baseColorFactor":[
					0,
					0,
					0,
					1
				],
				"metallicFactor":0,
				"roughnessFactor":0.5
			}
		},
		{
			"doubleSided":true,
			"name":"Material.113",
			"pbrMetallicRoughness":{
				"baseColorFactor":[
					0,
					0,
					0,
					1
				],
				"metallicFactor":0,
				"roughnessFactor":0.5
			}
		},
		{
			"doubleSided":true,
			"emissiveFactor":[
				1,
				1,
				1
			],
			"extensions":{
				"KHR_materials_emissive_strength":{
					"emissiveStrength":10
				}
			},
			"name":"Material.111",
			"pbrMetallicRoughness":{
				"baseColorFactor":[
					0,
					0,
					0,
					1
				]
			}
		},
		{
			"doubleSided":true,
			"name":"model-rc_u1_v1.008",
			"normalTexture":{
				"index":0
			},
			"pbrMetallicRoughness":{
				"baseColorTexture":{
					"index":1
				},
				"metallicFactor":0
			}
		}
	],
	"meshes":[
		{
			"name":"Curve",
			"primitives":[
				{
					"attributes":{
						"POSITION":0,
						"NORMAL":1,
						"TEXCOORD_0":2
					},
					"indices":3,
					"material":0
				}
			]
		},
		{
			"name":"Curve.001",
			"primitives":[
				{
					"attributes":{
						"POSITION":4,
						"NORMAL":5,
						"TEXCOORD_0":6
					},
					"indices":7,
					"material":1
				}
			]
		},
		{
			"name":"Curve.002",
			"primitives":[
				{
					"attributes":{
						"POSITION":8,
						"NORMAL":9,
						"TEXCOORD_0":10
					},
					"indices":11,
					"material":2
				}
			]
		},
		{
			"name":"Cube.009",
			"primitives":[
				{
					"attributes":{
						"POSITION":12,
						"NORMAL":13,
						"TEXCOORD_0":14
					},
					"indices":15,
					"material":3
				}
			]
		},
		{
			"name":"Cylinder.001",
			"primitives":[
				{
					"attributes":{
						"POSITION":16,
						"NORMAL":17,
						"TEXCOORD_0":18
					},
					"indices":19,
					"material":4
				}
			]
		},
		{
			"name":"Mesh",
			"primitives":[
				{
					"attributes":{
						"POSITION":20,
						"NORMAL":21
					},
					"indices":22,
					"material":5
				}
			]
		},
		{
			"name":"Sphere.004",
			"primitives":[
				{
					"attributes":{
						"POSITION":23,
						"NORMAL":24,
						"TEXCOORD_0":25
					},
					"indices":26,
					"material":6
				}
			]
		},
		{
			"name":"Object_0.003",
			"primitives":[
				{
					"attributes":{
						"POSITION":27,
						"NORMAL":28,
						"TEXCOORD_0":29
					},
					"indices":30,
					"material":7
				}
			]
		}
	],
	"textures":[
		{
			"sampler":0,
			"source":0
		},
		{
			"sampler":0,
			"source":1
		}
	],
	"images":[
		{
			"mimeType":"image/png",
			"name":"Image_1",
			"uri":"Image_1.png"
		},
		{
			"mimeType":"image/jpeg",
			"name":"Image_0",
			"uri":"Image_0.jpg"
		}
	],
	"accessors":[
		{
			"bufferView":0,
			"componentType":5126,
			"count":6071,
			"max":[
				5.485065460205078,
				0.030595894902944565,
				-0.1330944001674652
			],
			"min":[
				2.576665163040161,
				-0.02940412238240242,
				-2.7389845848083496
			],
			"type":"VEC3"
		},
		{
			"bufferView":1,
			"componentType":5126,
			"count":6071,
			"type":"VEC3"
		},
		{
			"bufferView":2,
			"componentType":5126,
			"count":6071,
			"type":"VEC2"
		},
		{
			"bufferView":3,
			"componentType":5123,
			"count":32832,
			"type":"SCALAR"
		},
		{
			"bufferView":4,
			"componentType":5126,
			"count":3042,
			"max":[
				6.035088539123535,
				0.030595894902944565,
				0.029650676995515823
			],
			"min":[
				1.6966578960418701,
				-0.02940412238240242,
				-2.4096519947052
			],
			"type":"VEC3"
		},
		{
			"bufferView":5,
			"componentType":5126,
			"count":3042,
			"type":"VEC3"
		},
		{
			"bufferView":6,
			"componentType":5126,
			"count":3042,
			"type":"VEC2"
		},
		{
			"bufferView":7,
			"componentType":5123,
			"count":16416,
			"type":"SCALAR"
		},
		{
			"bufferView":8,
			"componentType":5126,
			"count":10023,
			"max":[
				2.178450107574463,
				2.3181941509246826,
				0.016052285209298134
			],
			"min":[
				-0.030503572896122932,
				2.2581942081451416,
				-4.6858415603637695
			],
			"type":"VEC3"
		},
		{
			"bufferView":9,
			"componentType":5126,
			"count":10023,
			"type":"VEC3"
		},
		{
			"bufferView":10,
			"componentType":5126,
			"count":10023,
			"type":"VEC2"
		},
		{
			"bufferView":11,
			"componentType":5123,
			"count":55440,
			"type":"SCALAR"
		},
		{
			"bufferView":12,
			"componentType":5126,
			"count":5127,
			"max":[
				1.0001379251480103,
				0.6440157890319824,
				0.6004681587219238
			],
			"min":[
				-0.9998621344566345,
				-1,
				-1.3995318412780762
			],
			"type":"VEC3"
		},
		{
			"bufferView":13,
			"componentType":5126,
			"count":5127,
			"type":"VEC3"
		},
		{
			"bufferView":14,
			"componentType":5126,
			"count":5127,
			"type":"VEC2"
		},
		{
			"bufferView":15,
			"componentType":5123,
			"count":7632,
			"type":"SCALAR"
		},
		{
			"bufferView":16,
			"componentType":5126,
			"count":192,
			"max":[
				0.9770397543907166,
				1,
				67.53153991699219
			],
			"min":[
				-1.0229601860046387,
				-1,
				65.53153991699219
			],
			"type":"VEC3"
		},
		{
			"bufferView":17,
			"componentType":5126,
			"count":192,
			"type":"VEC3"
		},
		{
			"bufferView":18,
			"componentType":5126,
			"count":192,
			"type":"VEC2"
		},
		{
			"bufferView":19,
			"componentType":5123,
			"count":372,
			"type":"SCALAR"
		},
		{
			"bufferView":20,
			"componentType":5126,
			"count":964,
			"max":[
				1.8999735116958618,
				-0.0008682161569595337,
				-2.836240291595459
			],
			"min":[
				-1.8830164670944214,
				-2.5217435359954834,
				-6.721906661987305
			],
			"type":"VEC3"
		},
		{
			"bufferView":21,
			"componentType":5126,
			"count":964,
			"type":"VEC3"
		},
		{
			"bufferView":22,
			"componentType":5123,
			"count":1152,
			"type":"SCALAR"
		},
		{
			"bufferView":23,
			"componentType":5126,
			"count":2287,
			"max":[
				1.003199577331543,
				2.2761342525482178,
				-8.272300720214844
			],
			"min":[
				-0.9967991709709167,
				-1,
				-10.272299766540527
			],
			"type":"VEC3"
		},
		{
			"bufferView":24,
			"componentType":5126,
			"count":2287,
			"type":"VEC3"
		},
		{
			"bufferView":25,
			"componentType":5126,
			"count":2287,
			"type":"VEC2"
		},
		{
			"bufferView":26,
			"componentType":5123,
			"count":3066,
			"type":"SCALAR"
		},
		{
			"bufferView":27,
			"componentType":5126,
			"count":173023,
			"max":[
				0.9729230999946594,
				1.277607798576355,
				0.02138543501496315
			],
			"min":[
				-0.9783865213394165,
				-0.652774453163147,
				0.007072862237691879
			],
			"type":"VEC3"
		},
		{
			"bufferView":28,
			"componentType":5126,
			"count":173023,
			"type":"VEC3"
		},
		{
			"bufferView":29,
			"componentType":5126,
			"count":173023,
			"type":"VEC2"
		},
		{
			"bufferView":30,
			"componentType":5125,
			"count":747579,
			"type":"SCALAR"
		}
	],
	"bufferViews":[
		{
			"buffer":0,
			"byteLength":72852,
			"byteOffset":0,
			"target":34962
		},
		{
			"buffer":0,
			"byteLength":72852,
			"byteOffset":72852,
			"target":34962
		},
		{
			"buffer":0,
			"byteLength":48568,
			"byteOffset":145704,
			"target":34962
		},
		{
			"buffer":0,
			"byteLength":65664,
			"byteOffset":194272,
			"target":34963
		},
		{
			"buffer":0,
			"byteLength":36504,
			"byteOffset":259936,
			"target":34962
		},
		{
			"buffer":0,
			"byteLength":36504,
			"byteOffset":296440,
			"target":34962
		},
		{
			"buffer":0,
			"byteLength":24336,
			"byteOffset":332944,
			"target":34962
		},
		{
			"buffer":0,
			"byteLength":32832,
			"byteOffset":357280,
			"target":34963
		},
		{
			"buffer":0,
			"byteLength":120276,
			"byteOffset":390112,
			"target":34962
		},
		{
			"buffer":0,
			"byteLength":120276,
			"byteOffset":510388,
			"target":34962
		},
		{
			"buffer":0,
			"byteLength":80184,
			"byteOffset":630664,
			"target":34962
		},
		{
			"buffer":0,
			"byteLength":110880,
			"byteOffset":710848,
			"target":34963
		},
		{
			"buffer":0,
			"byteLength":61524,
			"byteOffset":821728,
			"target":34962
		},
		{
			"buffer":0,
			"byteLength":61524,
			"byteOffset":883252,
			"target":34962
		},
		{
			"buffer":0,
			"byteLength":41016,
			"byteOffset":944776,
			"target":34962
		},
		{
			"buffer":0,
			"byteLength":15264,
			"byteOffset":985792,
			"target":34963
		},
		{
			"buffer":0,
			"byteLength":2304,
			"byteOffset":1001056,
			"target":34962
		},
		{
			"buffer":0,
			"byteLength":2304,
			"byteOffset":1003360,
			"target":34962
		},
		{
			"buffer":0,
			"byteLength":1536,
			"byteOffset":1005664,
			"target":34962
		},
		{
			"buffer":0,
			"byteLength":744,
			"byteOffset":1007200,
			"target":34963
		},
		{
			"buffer":0,
			"byteLength":11568,
			"byteOffset":1007944,
			"target":34962
		},
		{
			"buffer":0,
			"byteLength":11568,
			"byteOffset":1019512,
			"target":34962
		},
		{
			"buffer":0,
			"byteLength":2304,
			"byteOffset":1031080,
			"target":34963
		},
		{
			"buffer":0,
			"byteLength":27444,
			"byteOffset":1033384,
			"target":34962
		},
		{
			"buffer":0,
			"byteLength":27444,
			"byteOffset":1060828,
			"target":34962
		},
		{
			"buffer":0,
			"byteLength":18296,
			"byteOffset":1088272,
			"target":34962
		},
		{
			"buffer":0,
			"byteLength":6132,
			"byteOffset":1106568,
			"target":34963
		},
		{
			"buffer":0,
			"byteLength":2076276,
			"byteOffset":1112700,
			"target":34962
		},
		{
			"buffer":0,
			"byteLength":2076276,
			"byteOffset":3188976,
			"target":34962
		},
		{
			"buffer":0,
			"byteLength":1384184,
			"byteOffset":5265252,
			"target":34962
		},
		{
			"buffer":0,
			"byteLength":2990316,
			"byteOffset":6649436,
			"target":34963
		}
	],
	"samplers":[
		{
			"magFilter":9729,
			"minFilter":9987
		}
	],
	"buffers":[
		{
			"byteLength":9639752,
			"uri":"untitled%202.bin"
		}
	]
}
