{
	"asset":{
		"generator":"Khronos glTF Blender I/O v4.2.57",
		"version":"2.0"
	},
	"extensionsUsed":[
		"KHR_materials_clearcoat"
	],
	"scene":0,
	"scenes":[
		{
			"name":"Scene",
			"nodes":[
				0,
				1,
				2,
				3,
				4,
				5,
				6,
				7,
				8,
				9,
				10,
				11,
				12
			]
		}
	],
	"nodes":[
		{
			"mesh":0,
			"name":"wall.003",
			"rotation":[
				0,
				1,
				0,
				0.00025068598915822804
			],
			"scale":[
				1,
				1,
				0.15124113857746124
			],
			"translation":[
				0.7144528031349182,
				0.9993892312049866,
				0.04297589883208275
			]
		},
		{
			"mesh":1,
			"name":"wall.005",
			"rotation":[
				0,
				1,
				0,
				0.00025068598915822804
			],
			"scale":[
				1,
				1,
				0.15124113857746124
			],
			"translation":[
				0.7133415341377258,
				0.9993892312049866,
				2.259754180908203
			]
		},
		{
			"mesh":2,
			"name":"wall.004",
			"rotation":[
				0,
				-0.7072840929031372,
				0,
				0.7069294452667236
			],
			"scale":[
				0.9976179599761963,
				1,
				0.15124113857746124
			],
			"translation":[
				-0.3938935399055481,
				0.9985434412956238,
				-1.0835825204849243
			]
		},
		{
			"mesh":3,
			"name":"wall.001",
			"rotation":[
				0,
				-0.00025064131477847695,
				0,
				1
			],
			"scale":[
				1,
				1,
				0.15124112367630005
			],
			"translation":[
				-1.5028793811798096,
				0.9998957514762878,
				0.04186411574482918
			]
		},
		{
			"mesh":4,
			"name":"wall.006",
			"rotation":[
				0,
				-0.00025064131477847695,
				0,
				1
			],
			"scale":[
				1,
				1,
				0.15124112367630005
			],
			"translation":[
				-1.503990650177002,
				0.9998957514762878,
				2.2586421966552734
			]
		},
		{
			"mesh":5,
			"name":"Object_2.001",
			"rotation":[
				-0.49829596281051636,
				-0.5016983151435852,
				-0.5016981363296509,
				0.49829593300819397
			],
			"translation":[
				0.4995649456977844,
				0.042478203773498535,
				1.153563141822815
			]
		},
		{
			"mesh":6,
			"name":"Object_2.004",
			"rotation":[
				-0.49829596281051636,
				-0.5016983151435852,
				-0.5016981363296509,
				0.49829593300819397
			],
			"translation":[
				0.5006785988807678,
				0.042478203773498535,
				-1.0679835081100464
			]
		},
		{
			"mesh":7,
			"name":"Object_2.005",
			"rotation":[
				-0.49829596281051636,
				-0.5016983151435852,
				-0.5016981363296509,
				0.49829593300819397
			],
			"translation":[
				0.7647944092750549,
				0.04309499263763428,
				0.06512916088104248
			]
		},
		{
			"mesh":8,
			"name":"Object_2.010",
			"rotation":[
				-0.49829596281051636,
				-0.5016983151435852,
				-0.5016981363296509,
				0.49829593300819397
			],
			"translation":[
				-1.4620208740234375,
				0.04217249155044556,
				0.06419838964939117
			]
		},
		{
			"mesh":9,
			"name":"Object_2.011",
			"rotation":[
				-0.49829596281051636,
				-0.5016983151435852,
				-0.5016981363296509,
				0.49829593300819397
			],
			"translation":[
				0.7636811137199402,
				0.04309499263763428,
				2.285964012145996
			]
		},
		{
			"mesh":10,
			"name":"Object_2.012",
			"rotation":[
				-0.49829596281051636,
				-0.5016983151435852,
				-0.5016981363296509,
				0.49829593300819397
			],
			"translation":[
				-1.463134527206421,
				0.042356014251708984,
				2.2850329875946045
			]
		},
		{
			"mesh":11,
			"name":"Object_2.013",
			"rotation":[
				-0.49829596281051636,
				-0.5016983151435852,
				-0.5016981363296509,
				0.49829593300819397
			],
			"translation":[
				-0.4117879867553711,
				0.042478203773498535,
				0.05738060548901558
			]
		},
		{
			"mesh":12,
			"name":"Object_2.014",
			"rotation":[
				-0.49829596281051636,
				-0.5016983151435852,
				-0.5016981363296509,
				0.49829593300819397
			],
			"translation":[
				-0.41290146112442017,
				0.042478203773498535,
				2.2777483463287354
			]
		}
	],
	"materials":[
		{
			"doubleSided":true,
			"extensions":{
				"KHR_materials_clearcoat":{
					"clearcoatRoughnessFactor":0
				}
			},
			"name":"Material.075",
			"pbrMetallicRoughness":{
				"baseColorFactor":[
					1,
					0.46400076150894165,
					0.2693345248699188,
					1
				],
				"metallicFactor":0,
				"roughnessFactor":0.5
			}
		},
		{
			"doubleSided":true,
			"extensions":{
				"KHR_materials_clearcoat":{
					"clearcoatRoughnessFactor":0
				}
			},
			"name":"Material.080",
			"pbrMetallicRoughness":{
				"baseColorFactor":[
					1,
					0.46400076150894165,
					0.2693345248699188,
					1
				],
				"metallicFactor":0,
				"roughnessFactor":0.5
			}
		},
		{
			"doubleSided":true,
			"extensions":{
				"KHR_materials_clearcoat":{
					"clearcoatRoughnessFactor":0
				}
			},
			"name":"Material.079",
			"pbrMetallicRoughness":{
				"baseColorFactor":[
					1,
					0.46400076150894165,
					0.2693345248699188,
					1
				],
				"metallicFactor":0,
				"roughnessFactor":0.5
			}
		},
		{
			"doubleSided":true,
			"name":"model-rc_u1_v1.008",
			"normalTexture":{
				"index":0
			},
			"pbrMetallicRoughness":{
				"baseColorTexture":{
					"index":1
				},
				"metallicFactor":0
			}
		}
	],
	"meshes":[
		{
			"name":"Cube.023",
			"primitives":[
				{
					"attributes":{
						"POSITION":0,
						"NORMAL":1,
						"TEXCOORD_0":2
					},
					"indices":3,
					"material":0
				}
			]
		},
		{
			"name":"Cube.030",
			"primitives":[
				{
					"attributes":{
						"POSITION":4,
						"NORMAL":5,
						"TEXCOORD_0":6
					},
					"indices":3,
					"material":0
				}
			]
		},
		{
			"name":"Cube.029",
			"primitives":[
				{
					"attributes":{
						"POSITION":7,
						"NORMAL":8,
						"TEXCOORD_0":9
					},
					"indices":10,
					"material":1
				}
			]
		},
		{
			"name":"Cube.028",
			"primitives":[
				{
					"attributes":{
						"POSITION":11,
						"NORMAL":12,
						"TEXCOORD_0":13
					},
					"indices":14,
					"material":2
				}
			]
		},
		{
			"name":"Cube.031",
			"primitives":[
				{
					"attributes":{
						"POSITION":15,
						"NORMAL":16,
						"TEXCOORD_0":17
					},
					"indices":18,
					"material":2
				}
			]
		},
		{
			"name":"Object_0.009",
			"primitives":[
				{
					"attributes":{
						"POSITION":19,
						"NORMAL":20,
						"TEXCOORD_0":21
					},
					"indices":22,
					"material":3
				}
			]
		},
		{
			"name":"Object_0.011",
			"primitives":[
				{
					"attributes":{
						"POSITION":23,
						"NORMAL":24,
						"TEXCOORD_0":25
					},
					"indices":22,
					"material":3
				}
			]
		},
		{
			"name":"Object_0.012",
			"primitives":[
				{
					"attributes":{
						"POSITION":26,
						"NORMAL":27,
						"TEXCOORD_0":28
					},
					"indices":29,
					"material":3
				}
			]
		},
		{
			"name":"Object_0.013",
			"primitives":[
				{
					"attributes":{
						"POSITION":30,
						"NORMAL":31,
						"TEXCOORD_0":32
					},
					"indices":29,
					"material":3
				}
			]
		},
		{
			"name":"Object_0.014",
			"primitives":[
				{
					"attributes":{
						"POSITION":33,
						"NORMAL":34,
						"TEXCOORD_0":35
					},
					"indices":29,
					"material":3
				}
			]
		},
		{
			"name":"Object_0.015",
			"primitives":[
				{
					"attributes":{
						"POSITION":36,
						"NORMAL":37,
						"TEXCOORD_0":38
					},
					"indices":29,
					"material":3
				}
			]
		},
		{
			"name":"Object_0.017",
			"primitives":[
				{
					"attributes":{
						"POSITION":39,
						"NORMAL":40,
						"TEXCOORD_0":41
					},
					"indices":42,
					"material":3
				}
			]
		},
		{
			"name":"Object_0.018",
			"primitives":[
				{
					"attributes":{
						"POSITION":43,
						"NORMAL":44,
						"TEXCOORD_0":45
					},
					"indices":42,
					"material":3
				}
			]
		}
	],
	"textures":[
		{
			"sampler":0,
			"source":0
		},
		{
			"sampler":0,
			"source":1
		}
	],
	"images":[
		{
			"mimeType":"image/png",
			"name":"Image_1",
			"uri":"Image_1.png"
		},
		{
			"mimeType":"image/jpeg",
			"name":"Image_0",
			"uri":"Image_0.jpg"
		}
	],
	"accessors":[
		{
			"bufferView":0,
			"componentType":5126,
			"count":3329,
			"max":[
				0.7259970903396606,
				0.6435073614120483,
				1.0013362169265747
			],
			"min":[
				-1.3995317220687866,
				-1,
				-0.998675525188446
			],
			"type":"VEC3"
		},
		{
			"bufferView":1,
			"componentType":5126,
			"count":3329,
			"type":"VEC3"
		},
		{
			"bufferView":2,
			"componentType":5126,
			"count":3329,
			"type":"VEC2"
		},
		{
			"bufferView":3,
			"componentType":5123,
			"count":4854,
			"type":"SCALAR"
		},
		{
			"bufferView":4,
			"componentType":5126,
			"count":3329,
			"max":[
				0.7259970903396606,
				0.6368272304534912,
				1.0013362169265747
			],
			"min":[
				-1.3995317220687866,
				-1,
				-0.998675525188446
			],
			"type":"VEC3"
		},
		{
			"bufferView":5,
			"componentType":5126,
			"count":3329,
			"type":"VEC3"
		},
		{
			"bufferView":6,
			"componentType":5126,
			"count":3329,
			"type":"VEC2"
		},
		{
			"bufferView":7,
			"componentType":5126,
			"count":3342,
			"max":[
				3.4959490299224854,
				0.6455409526824951,
				-1.64167320728302
			],
			"min":[
				-1.000200867652893,
				-1,
				-3.6416871547698975
			],
			"type":"VEC3"
		},
		{
			"bufferView":8,
			"componentType":5126,
			"count":3342,
			"type":"VEC3"
		},
		{
			"bufferView":9,
			"componentType":5126,
			"count":3342,
			"type":"VEC2"
		},
		{
			"bufferView":10,
			"componentType":5123,
			"count":4854,
			"type":"SCALAR"
		},
		{
			"bufferView":11,
			"componentType":5126,
			"count":3329,
			"max":[
				1.5897862911224365,
				0.6439574360847473,
				1.0804129838943481
			],
			"min":[
				-0.6033887267112732,
				-1,
				-1.0846600532531738
			],
			"type":"VEC3"
		},
		{
			"bufferView":12,
			"componentType":5126,
			"count":3329,
			"type":"VEC3"
		},
		{
			"bufferView":13,
			"componentType":5126,
			"count":3329,
			"type":"VEC2"
		},
		{
			"bufferView":14,
			"componentType":5123,
			"count":4854,
			"type":"SCALAR"
		},
		{
			"bufferView":15,
			"componentType":5126,
			"count":3323,
			"max":[
				1.5897862911224365,
				0.6439657211303711,
				0.9986876845359802
			],
			"min":[
				-0.6004682183265686,
				-1,
				-1.00132417678833
			],
			"type":"VEC3"
		},
		{
			"bufferView":16,
			"componentType":5126,
			"count":3323,
			"type":"VEC3"
		},
		{
			"bufferView":17,
			"componentType":5126,
			"count":3323,
			"type":"VEC2"
		},
		{
			"bufferView":18,
			"componentType":5123,
			"count":4854,
			"type":"SCALAR"
		},
		{
			"bufferView":19,
			"componentType":5126,
			"count":27433,
			"max":[
				0.9729230999946594,
				-0.3368109166622162,
				0.02138543501496315
			],
			"min":[
				-0.9676103591918945,
				-0.652774453163147,
				0.007072862237691879
			],
			"type":"VEC3"
		},
		{
			"bufferView":20,
			"componentType":5126,
			"count":27433,
			"type":"VEC3"
		},
		{
			"bufferView":21,
			"componentType":5126,
			"count":27433,
			"type":"VEC2"
		},
		{
			"bufferView":22,
			"componentType":5123,
			"count":118125,
			"type":"SCALAR"
		},
		{
			"bufferView":23,
			"componentType":5126,
			"count":27433,
			"max":[
				0.9729230999946594,
				-0.3368109166622162,
				0.02138543501496315
			],
			"min":[
				-0.9676103591918945,
				-0.652774453163147,
				0.007072862237691879
			],
			"type":"VEC3"
		},
		{
			"bufferView":24,
			"componentType":5126,
			"count":27433,
			"type":"VEC3"
		},
		{
			"bufferView":25,
			"componentType":5126,
			"count":27433,
			"type":"VEC2"
		},
		{
			"bufferView":26,
			"componentType":5126,
			"count":24717,
			"max":[
				0.11858070641756058,
				1.3125476837158203,
				0.021385332569479942
			],
			"min":[
				-0.16885912418365479,
				-0.6068093776702881,
				0.007072759792208672
			],
			"type":"VEC3"
		},
		{
			"bufferView":27,
			"componentType":5126,
			"count":24717,
			"type":"VEC3"
		},
		{
			"bufferView":28,
			"componentType":5126,
			"count":24717,
			"type":"VEC2"
		},
		{
			"bufferView":29,
			"componentType":5123,
			"count":106797,
			"type":"SCALAR"
		},
		{
			"bufferView":30,
			"componentType":5126,
			"count":24717,
			"max":[
				0.11858070641756058,
				1.3125476837158203,
				0.021385332569479942
			],
			"min":[
				-0.16885912418365479,
				-0.6068093776702881,
				0.007072759792208672
			],
			"type":"VEC3"
		},
		{
			"bufferView":31,
			"componentType":5126,
			"count":24717,
			"type":"VEC3"
		},
		{
			"bufferView":32,
			"componentType":5126,
			"count":24717,
			"type":"VEC2"
		},
		{
			"bufferView":33,
			"componentType":5126,
			"count":24717,
			"max":[
				0.11858070641756058,
				1.3125476837158203,
				0.021385332569479942
			],
			"min":[
				-0.16885912418365479,
				-0.6068093776702881,
				0.007072759792208672
			],
			"type":"VEC3"
		},
		{
			"bufferView":34,
			"componentType":5126,
			"count":24717,
			"type":"VEC3"
		},
		{
			"bufferView":35,
			"componentType":5126,
			"count":24717,
			"type":"VEC2"
		},
		{
			"bufferView":36,
			"componentType":5126,
			"count":24717,
			"max":[
				0.11858070641756058,
				1.3125476837158203,
				0.021385332569479942
			],
			"min":[
				-0.16885912418365479,
				-0.6068093776702881,
				0.007072759792208672
			],
			"type":"VEC3"
		},
		{
			"bufferView":37,
			"componentType":5126,
			"count":24717,
			"type":"VEC3"
		},
		{
			"bufferView":38,
			"componentType":5126,
			"count":24717,
			"type":"VEC2"
		},
		{
			"bufferView":39,
			"componentType":5126,
			"count":3866,
			"max":[
				0.11983991414308548,
				0.5686451196670532,
				0.021385209634900093
			],
			"min":[
				-0.1568237543106079,
				0.2637067139148712,
				0.007072636857628822
			],
			"type":"VEC3"
		},
		{
			"bufferView":40,
			"componentType":5126,
			"count":3866,
			"type":"VEC3"
		},
		{
			"bufferView":41,
			"componentType":5126,
			"count":3866,
			"type":"VEC2"
		},
		{
			"bufferView":42,
			"componentType":5123,
			"count":16875,
			"type":"SCALAR"
		},
		{
			"bufferView":43,
			"componentType":5126,
			"count":3866,
			"max":[
				0.11983991414308548,
				0.5686451196670532,
				0.021385209634900093
			],
			"min":[
				-0.1568237543106079,
				0.2637067139148712,
				0.007072636857628822
			],
			"type":"VEC3"
		},
		{
			"bufferView":44,
			"componentType":5126,
			"count":3866,
			"type":"VEC3"
		},
		{
			"bufferView":45,
			"componentType":5126,
			"count":3866,
			"type":"VEC2"
		}
	],
	"bufferViews":[
		{
			"buffer":0,
			"byteLength":39948,
			"byteOffset":0,
			"target":34962
		},
		{
			"buffer":0,
			"byteLength":39948,
			"byteOffset":39948,
			"target":34962
		},
		{
			"buffer":0,
			"byteLength":26632,
			"byteOffset":79896,
			"target":34962
		},
		{
			"buffer":0,
			"byteLength":9708,
			"byteOffset":106528,
			"target":34963
		},
		{
			"buffer":0,
			"byteLength":39948,
			"byteOffset":116236,
			"target":34962
		},
		{
			"buffer":0,
			"byteLength":39948,
			"byteOffset":156184,
			"target":34962
		},
		{
			"buffer":0,
			"byteLength":26632,
			"byteOffset":196132,
			"target":34962
		},
		{
			"buffer":0,
			"byteLength":40104,
			"byteOffset":222764,
			"target":34962
		},
		{
			"buffer":0,
			"byteLength":40104,
			"byteOffset":262868,
			"target":34962
		},
		{
			"buffer":0,
			"byteLength":26736,
			"byteOffset":302972,
			"target":34962
		},
		{
			"buffer":0,
			"byteLength":9708,
			"byteOffset":329708,
			"target":34963
		},
		{
			"buffer":0,
			"byteLength":39948,
			"byteOffset":339416,
			"target":34962
		},
		{
			"buffer":0,
			"byteLength":39948,
			"byteOffset":379364,
			"target":34962
		},
		{
			"buffer":0,
			"byteLength":26632,
			"byteOffset":419312,
			"target":34962
		},
		{
			"buffer":0,
			"byteLength":9708,
			"byteOffset":445944,
			"target":34963
		},
		{
			"buffer":0,
			"byteLength":39876,
			"byteOffset":455652,
			"target":34962
		},
		{
			"buffer":0,
			"byteLength":39876,
			"byteOffset":495528,
			"target":34962
		},
		{
			"buffer":0,
			"byteLength":26584,
			"byteOffset":535404,
			"target":34962
		},
		{
			"buffer":0,
			"byteLength":9708,
			"byteOffset":561988,
			"target":34963
		},
		{
			"buffer":0,
			"byteLength":329196,
			"byteOffset":571696,
			"target":34962
		},
		{
			"buffer":0,
			"byteLength":329196,
			"byteOffset":900892,
			"target":34962
		},
		{
			"buffer":0,
			"byteLength":219464,
			"byteOffset":1230088,
			"target":34962
		},
		{
			"buffer":0,
			"byteLength":236250,
			"byteOffset":1449552,
			"target":34963
		},
		{
			"buffer":0,
			"byteLength":329196,
			"byteOffset":1685804,
			"target":34962
		},
		{
			"buffer":0,
			"byteLength":329196,
			"byteOffset":2015000,
			"target":34962
		},
		{
			"buffer":0,
			"byteLength":219464,
			"byteOffset":2344196,
			"target":34962
		},
		{
			"buffer":0,
			"byteLength":296604,
			"byteOffset":2563660,
			"target":34962
		},
		{
			"buffer":0,
			"byteLength":296604,
			"byteOffset":2860264,
			"target":34962
		},
		{
			"buffer":0,
			"byteLength":197736,
			"byteOffset":3156868,
			"target":34962
		},
		{
			"buffer":0,
			"byteLength":213594,
			"byteOffset":3354604,
			"target":34963
		},
		{
			"buffer":0,
			"byteLength":296604,
			"byteOffset":3568200,
			"target":34962
		},
		{
			"buffer":0,
			"byteLength":296604,
			"byteOffset":3864804,
			"target":34962
		},
		{
			"buffer":0,
			"byteLength":197736,
			"byteOffset":4161408,
			"target":34962
		},
		{
			"buffer":0,
			"byteLength":296604,
			"byteOffset":4359144,
			"target":34962
		},
		{
			"buffer":0,
			"byteLength":296604,
			"byteOffset":4655748,
			"target":34962
		},
		{
			"buffer":0,
			"byteLength":197736,
			"byteOffset":4952352,
			"target":34962
		},
		{
			"buffer":0,
			"byteLength":296604,
			"byteOffset":5150088,
			"target":34962
		},
		{
			"buffer":0,
			"byteLength":296604,
			"byteOffset":5446692,
			"target":34962
		},
		{
			"buffer":0,
			"byteLength":197736,
			"byteOffset":5743296,
			"target":34962
		},
		{
			"buffer":0,
			"byteLength":46392,
			"byteOffset":5941032,
			"target":34962
		},
		{
			"buffer":0,
			"byteLength":46392,
			"byteOffset":5987424,
			"target":34962
		},
		{
			"buffer":0,
			"byteLength":30928,
			"byteOffset":6033816,
			"target":34962
		},
		{
			"buffer":0,
			"byteLength":33750,
			"byteOffset":6064744,
			"target":34963
		},
		{
			"buffer":0,
			"byteLength":46392,
			"byteOffset":6098496,
			"target":34962
		},
		{
			"buffer":0,
			"byteLength":46392,
			"byteOffset":6144888,
			"target":34962
		},
		{
			"buffer":0,
			"byteLength":30928,
			"byteOffset":6191280,
			"target":34962
		}
	],
	"samplers":[
		{
			"magFilter":9729,
			"minFilter":9987
		}
	],
	"buffers":[
		{
			"byteLength":6222208,
			"uri":"untitled.bin"
		}
	]
}
